<svg width="77" height="70" viewBox="0 0 77 70" fill="none" xmlns="http://www.w3.org/2000/svg">
<path d="M31.0138 40.8333C39.5659 40.8333 46.5207 34.7287 46.5207 27.2222C46.5207 19.7157 39.5659 13.6111 31.0138 13.6111C22.4617 13.6111 15.5068 19.7157 15.5068 27.2222C15.5068 34.7287 22.4617 40.8333 31.0138 40.8333ZM31.0138 20.4166C35.2898 20.4166 38.7673 23.4689 38.7673 27.2222C38.7673 30.9755 35.2898 34.0277 31.0138 34.0277C26.7377 34.0277 23.2603 30.9755 23.2603 27.2222C23.2603 23.4689 26.7377 20.4166 31.0138 20.4166Z" fill="white"/>
<path d="M28.8046 68.3864C29.4494 68.8035 30.222 69.0278 31.0143 69.0278C31.8067 69.0278 32.5792 68.8035 33.224 68.3864C34.3822 67.6443 61.6036 49.8385 61.4932 27.6113C61.4932 12.3871 47.8196 0 31.0143 0C14.2091 0 0.535492 12.3871 0.535492 27.5941C0.425006 49.8385 27.6464 67.6443 28.8046 68.3864ZM31.0143 6.90283C43.6211 6.90283 53.8734 16.1906 53.8734 27.6286C53.9535 42.946 37.1558 56.6999 31.0143 61.2109C24.8766 56.6964 8.07519 42.9391 8.1552 27.6113C8.1552 16.1906 18.4075 6.90283 31.0143 6.90283Z" fill="white"/>
</svg>
